<?xml version="1.0" encoding="utf-8"?>
<!-- Generator: Adobe Illustrator 19.2.1, SVG Export Plug-In . SVG Version: 6.00 Build 0)  -->
<svg version="1.1" xmlns="http://www.w3.org/2000/svg" xmlns:xlink="http://www.w3.org/1999/xlink" x="0px" y="0px"
	 viewBox="0 0 15 15.5" style="enable-background:new 0 0 15 15.5;" xml:space="preserve">
<style type="text/css">
	.st0{fill:#A51C30;}
	.st1{fill:#5c5a5a;}
	.st2{fill:none;}
</style>
<g id="bkgd">
</g>
<g id="Keepers">
	<g>
		<path class="st1" d="M7.4,15.5c-0.1,0-0.2,0-0.3-0.1c-0.2-0.2-0.2-0.4-0.1-0.6c0,0,0.5-1-0.1-2.1c-0.1-0.1-0.1-0.3-0.2-0.4
			c0-0.1,0-0.2-0.1-0.2H4.1C1.7,12,0,10.2,0,7.7V4.4C0,1.8,1.7,0,4.1,0h6.6C13.1,0,15,1.9,15,4.4v3.3c0,2.5-1.8,4.3-4.3,4.3h-0.4
			c-0.1,0-0.1,0.3-0.2,0.4L10,12.7c-0.6,1.2-2.2,2.6-2.3,2.6C7.6,15.4,7.5,15.5,7.4,15.5z M4.1,1C2.3,1,1,2.3,1,4.4v3.3
			c0,2,1.3,3.3,3.1,3.3h2.8c0.4,0,0.6,0.4,0.7,0.8c0,0.1,0.1,0.2,0.1,0.3c0.2,0.5,0.3,1,0.4,1.4c0.4-0.4,0.7-0.8,0.9-1.2L9.2,12
			c0.2-0.5,0.4-1,0.9-1h0.6c1.9,0,3.3-1.4,3.3-3.3V4.4C14,2.4,12.6,1,10.7,1H4.1z"/>
		<path class="st1" d="M6.7,6.8c0-0.2,0-0.4,0.1-0.5C6.8,6.2,6.9,6.1,7,5.9c0.2-0.2,0.4-0.3,0.5-0.5c0.2-0.1,0.3-0.3,0.4-0.4
			C8,5,8.1,4.9,8.2,4.8c0.1-0.1,0.1-0.2,0.1-0.3c0-0.2-0.1-0.4-0.2-0.5C7.9,3.8,7.8,3.7,7.6,3.7C7.3,3.7,7,3.8,6.9,4
			C6.7,4.2,6.6,4.4,6.6,4.6L5,4.5c0.1-0.7,0.3-1.2,0.8-1.6c0.4-0.4,1-0.6,1.7-0.6c0.3,0,0.6,0,0.9,0.1c0.3,0.1,0.5,0.2,0.7,0.4
			C9.3,3,9.5,3.2,9.6,3.5C9.7,3.7,9.8,4,9.8,4.3c0,0.2,0,0.4-0.1,0.5c0,0.2-0.1,0.3-0.2,0.5C9.4,5.5,9.3,5.6,9.1,5.8
			C9,5.9,8.8,6.1,8.5,6.3C8.4,6.4,8.3,6.5,8.2,6.7C8.2,6.8,8.2,6.9,8.2,7v0.3H6.7V6.8z M6.5,8.8c0-0.1,0-0.2,0.1-0.4
			c0-0.1,0.1-0.2,0.2-0.3C6.8,8,6.9,8,7,7.9c0.1,0,0.2-0.1,0.4-0.1c0.1,0,0.2,0,0.4,0.1C7.9,8,8,8,8.1,8.1c0.1,0.1,0.1,0.2,0.2,0.3
			c0,0.1,0.1,0.2,0.1,0.4s0,0.2-0.1,0.4S8.1,9.3,8.1,9.4C8,9.5,7.9,9.6,7.8,9.6c-0.1,0-0.2,0.1-0.4,0.1c-0.1,0-0.2,0-0.4-0.1
			c-0.1,0-0.2-0.1-0.3-0.2C6.7,9.3,6.6,9.2,6.6,9.1C6.5,9,6.5,8.9,6.5,8.8z"/>
	</g>
</g>
</svg>
