<?xml version="1.0" encoding="utf-8"?>
<!-- Generator: Adobe Illustrator 19.2.1, SVG Export Plug-In . SVG Version: 6.00 Build 0)  -->
<svg version="1.1" xmlns="http://www.w3.org/2000/svg" xmlns:xlink="http://www.w3.org/1999/xlink" x="0px" y="0px"
	 viewBox="0 0 19.2 13.4" style="enable-background:new 0 0 19.2 13.4;" xml:space="preserve">
<style type="text/css">
	.st0{fill:#A51C30;}
	.st1{fill:#5c5a5a;}
	.st2{fill:none;}
</style>
<g id="bkgd">
</g>
<g id="Keepers">
	<g>
		<circle class="st1" cx="1.6" cy="2.1" r="1.6"/>
		<circle class="st1" cx="1.6" cy="6.1" r="1.6"/>
		<circle class="st1" cx="1.6" cy="10.1" r="1.6"/>
		<g>
			<polygon class="st2" points="10.7,7.6 10.6,7.6 10.7,7.7 			"/>
			<polygon class="st1" points="14.6,0.6 4.6,0.6 4.6,3.6 13.6,3.6 14.6,2.2 			"/>
			<polygon class="st1" points="10.6,7.6 10.7,7.6 12.8,4.6 4.6,4.6 4.6,7.6 6.9,7.6 8.8,5.8 			"/>
			<polygon class="st1" points="12.4,11.6 14.6,11.6 14.6,8.6 14.6,8.6 			"/>
			<polygon class="st1" points="4.6,8.6 4.6,11.6 9.4,11.6 6.4,8.6 			"/>
			<polygon class="st2" points="11.2,8.6 13.3,8.6 14,7.6 11.9,7.6 			"/>
			<polygon class="st2" points="14.6,6.9 17.8,2.4 16.4,1.4 14.1,4.6 14.6,4.6 			"/>
			<polygon class="st2" points="9.2,7.6 8.3,7.6 7.6,8.4 7.8,8.6 10.2,8.6 			"/>
			<polygon class="st2" points="11,11.9 11.2,11.6 10.8,11.6 			"/>
			<polygon class="st2" points="14,7.6 14.6,6.9 14.6,4.6 14.1,4.6 11.9,7.6 			"/>
			<polygon class="st2" points="8.8,7.2 8.3,7.6 9.2,7.6 			"/>
			<polygon class="st2" points="10.8,9.2 10.2,8.6 7.8,8.6 10.8,11.6 11.2,11.6 13.3,8.6 11.2,8.6 			"/>
			<polygon class="st1" points="11.3,7.6 10.7,7.6 10.7,7.7 10.6,7.6 9.9,7.6 10.7,8.5 			"/>
			<polygon class="st1" points="11.1,12.6 10.1,11.6 9.4,11.6 11.2,13.4 12.4,11.6 11.8,11.6 			"/>
			<polygon class="st1" points="6.8,8.4 7.6,7.6 6.9,7.6 6.1,8.4 6.4,8.6 7.1,8.6 			"/>
			<polygon class="st1" points="16.3,0.7 18.5,2.3 13.9,8.6 14.6,8.6 19.2,2.2 16.2,0 14.6,2.2 14.6,3.1 			"/>
			<polygon class="st1" points="14.2,3.6 13.6,3.6 12.8,4.6 13.5,4.6 			"/>
			<polygon class="st1" points="14.6,3.1 14.6,2.2 13.6,3.6 14.2,3.6 			"/>
			<polygon class="st1" points="8.8,6.5 9.9,7.6 10.6,7.6 8.8,5.8 6.9,7.6 7.6,7.6 			"/>
			<polygon class="st1" points="11.3,7.6 13.5,4.6 12.8,4.6 10.7,7.6 			"/>
			<polygon class="st1" points="7.1,8.6 6.4,8.6 9.4,11.6 10.1,11.6 			"/>
			<polygon class="st1" points="13.9,8.6 11.8,11.6 12.4,11.6 14.6,8.6 			"/>
			<polygon class="st1" points="16.3,0.7 14.6,3.1 14.6,3.6 14.2,3.6 13.5,4.6 14.1,4.6 16.4,1.4 17.8,2.4 14.6,6.9 14.6,7.6 
				14,7.6 13.3,8.6 13.9,8.6 18.5,2.3 			"/>
			<polygon class="st1" points="11,11.9 10.8,11.6 10.1,11.6 11.1,12.6 11.8,11.6 11.2,11.6 			"/>
			<polygon class="st1" points="7.6,8.4 8.3,7.6 7.6,7.6 6.8,8.4 7.1,8.6 7.8,8.6 			"/>
			<polygon class="st1" points="10.2,8.6 11.2,8.6 11.9,7.6 11.3,7.6 10.7,8.5 9.9,7.6 9.2,7.6 			"/>
			<polygon class="st1" points="14.6,3.1 14.2,3.6 14.6,3.6 			"/>
			<polygon class="st1" points="8.8,7.2 9.2,7.6 9.9,7.6 8.8,6.5 7.6,7.6 8.3,7.6 			"/>
			<polygon class="st1" points="14.6,7.6 14.6,6.9 14,7.6 			"/>
			<polygon class="st1" points="14.1,4.6 13.5,4.6 11.3,7.6 11.9,7.6 			"/>
			<polygon class="st1" points="11.2,8.6 10.2,8.6 10.8,9.2 			"/>
			<polygon class="st1" points="11.2,11.6 11.8,11.6 13.9,8.6 13.3,8.6 			"/>
			<polygon class="st1" points="7.8,8.6 7.1,8.6 10.1,11.6 10.8,11.6 			"/>
		</g>
	</g>
</g>
</svg>
