<?xml version="1.0" encoding="utf-8"?>
<!-- Generator: Adobe Illustrator 19.2.1, SVG Export Plug-In . SVG Version: 6.00 Build 0)  -->
<svg version="1.1" xmlns="http://www.w3.org/2000/svg" xmlns:xlink="http://www.w3.org/1999/xlink" x="0px" y="0px"
	 viewBox="0 0 16.9 15.8" style="enable-background:new 0 0 16.9 15.8;" xml:space="preserve">
<style type="text/css">
	.st0{display:none;}
	.st1{display:inline;fill:#A51C30;}
	.st2{fill:#FFFFFF;}
	.st3{fill:none;}
	.st4{display:inline;fill:#FFFFFF;}
</style>
<g id="bkgd" class="st0">
	<rect x="-433.5" y="-74.9" class="st1" width="708.1" height="163.2"/>
</g>
<g id="Keepers">
	<g>
		<g>
			<path class="st3" d="M15.5,9.8L12.3,5c-0.3-0.4-1.1,0-0.8,0.5l1.2,1.9L12,7.9l-0.3-0.4l-1.4-2.1c-0.3-0.4-1.1,0-0.8,0.5L10.9,8
				l-0.8,0.6L10,8.4L8.4,6C8.1,5.5,7.3,6,7.6,6.5L9.3,9L8.5,9.6L4.9,4.1c-0.3-0.4-1.1,0-0.8,0.5l4.8,7.3l-0.8,0.6L7.6,12
				c-1-0.5-2.1-0.9-2.1-0.9c-0.5-0.2-0.9,0.5-0.4,0.7c2.1,0.8,4.1,1.8,6.2,2.8C13.7,15.5,17.1,12.2,15.5,9.8L15.5,9.8z"/>
			<path class="st2" d="M16.4,9.4L16.4,9.4l-3.3-5c-0.6-0.8-1.8-0.8-2.4,0C10.1,4,9.1,4.2,8.7,4.9C8.1,4.6,7.3,4.8,6.9,5.3L6,3.9
				c0-1.7-2.2-2.6-3.4-1.4C1.4,3.8,2.2,5.8,3.8,6l3,4.6c-0.5-0.2-0.9-0.4-0.9-0.4C4.2,9.4,3.1,12,4.7,12.7c2.1,0.8,4.1,1.9,6.1,2.8
				C14.2,16.8,18.2,12.7,16.4,9.4z M15.7,11.8c-0.4,1.9-2.5,3.5-4.4,2.8c-2-1-4-2-6.2-2.8c-0.5-0.2-0.1-1,0.4-0.7
				c0,0,1.1,0.5,2.1,0.9l0.5,0.5l0.8-0.6L4.1,4.6C3.8,4.1,4.6,3.6,4.9,4.1l3.6,5.5L9.3,9L7.6,6.5C7.3,6,8.1,5.5,8.4,6L10,8.4
				l0.1,0.1L10.9,8L9.5,5.9C9.2,5.4,10,4.9,10.3,5.4l1.4,2.1L12,7.9l0.8-0.6l-1.2-1.9C11.3,5,12,4.5,12.3,5l3.2,4.9v0
				C15.7,10.2,15.9,10.9,15.7,11.8C15.5,12.8,15.9,10.9,15.7,11.8z"/>
		</g>
		<path class="st2" d="M4,0C1.8,0,0,1.8,0,4c0,2.2,1.8,4,3.9,4L3.2,6.9C1,6.3,0.3,3.4,2,1.8c1.7-1.6,4.6-0.6,5,1.8l0.2,0.4
			c0.2-0.1,0.5-0.1,0.8-0.1C7.8,1.7,6.1,0,4,0z"/>
		<g class="st0">
			<path class="st4" d="M4,7.5C2.1,7.5,0.5,5.9,0.5,4c0-1.9,1.6-3.5,3.5-3.5S7.5,2.1,7.5,4c0,0.2,0,0.4-0.1,0.6
				c0.2-0.1,0.3-0.1,0.5-0.1c0-0.2,0-0.3,0-0.5c0-2.2-1.8-4-4-4S0,1.8,0,4s1.8,4,4,4c0.2,0,0.3,0,0.5,0L4.1,7.5C4.1,7.5,4,7.5,4,7.5
				z"/>
			<path class="st4" d="M1,4c0-1.6,1.3-3,3-3s3,1.3,3,3c0,0.2,0,0.4-0.1,0.6L7,4.7c0.1-0.1,0.3-0.1,0.4-0.2c0-0.2,0.1-0.4,0.1-0.6
				c0-1.9-1.6-3.5-3.5-3.5S0.5,2.1,0.5,4c0,1.9,1.6,3.5,3.5,3.5c0.1,0,0.1,0,0.1,0L3.8,7C2.2,6.9,1,5.6,1,4z"/>
		</g>
	</g>
</g>
</svg>
